<svg width="20" height="21" viewBox="0 0 20 21" fill="none" xmlns="http://www.w3.org/2000/svg">
<g clip-path="url(#clip0_101_512)">
<path d="M14.95 15.4499C13.5255 16.5358 11.791 17.1373 10 17.1666C4.16671 17.1666 0.833374 10.4999 0.833374 10.4999C1.86995 8.56819 3.30765 6.88045 5.05004 5.54994M8.25004 4.03327C8.82365 3.89901 9.41093 3.83189 10 3.83327C15.8334 3.83327 19.1667 10.4999 19.1667 10.4999C18.6609 11.4463 18.0576 12.3372 17.3667 13.1583M11.7667 12.2666C11.5378 12.5122 11.2618 12.7092 10.9552 12.8459C10.6485 12.9825 10.3175 13.056 9.98178 13.0619C9.64611 13.0678 9.31268 13.0061 9.00138 12.8803C8.69009 12.7546 8.40731 12.5675 8.16991 12.3301C7.93252 12.0927 7.74537 11.8099 7.61963 11.4986C7.4939 11.1873 7.43215 10.8539 7.43807 10.5182C7.44399 10.1825 7.51746 9.85148 7.6541 9.54481C7.79074 9.23815 7.98775 8.96215 8.23337 8.73327" stroke="#94A3B8" stroke-width="1.5" stroke-linecap="round" stroke-linejoin="round"/>
<path d="M0.833374 1.33337L19.1667 19.6667" stroke="#94A3B8" stroke-width="1.5" stroke-linecap="round" stroke-linejoin="round"/>
</g>
<defs>
<clipPath id="clip0_101_512">
<rect width="20" height="20" fill="white" transform="translate(0 0.5)"/>
</clipPath>
</defs>
</svg>
