<svg width="92" height="23" viewBox="0 0 92 23" fill="none" xmlns="http://www.w3.org/2000/svg">
<path d="M78.2001 0V23H85.1001C88.9112 23 92.0001 19.9111 92.0001 16.1V6.9C92.0001 3.0889 88.9112 0 85.1001 0H78.2001ZM85.1001 18.4H82.8001V4.6H85.1001C86.3708 4.6 87.4001 5.62925 87.4001 6.9V16.1C87.4001 17.3708 86.3708 18.4 85.1001 18.4Z" fill="#EEEEEE"/>
<path d="M70.84 0V18.4H66.24V0H61.64V18.4C61.64 20.9403 63.6997 23 66.24 23H70.84C73.3804 23 75.44 20.9403 75.44 18.4V0H70.84Z" fill="#EEEEEE"/>
<path d="M58.8801 0H45.0801V4.6H49.6801V23H54.2801V4.6H58.8801V0Z" fill="#EEEEEE"/>
<path d="M41.17 4.6L42.32 0H33.12C30.5797 0 28.52 2.05965 28.52 4.6V9.2C28.52 11.7403 30.5797 13.8 33.12 13.8H37.72V18.4H29.67L28.52 23H37.72C40.2604 23 42.32 20.9403 42.32 18.4V13.8C42.32 11.2596 40.2604 9.2 37.72 9.2H33.12V4.6H41.17Z" fill="#EEEEEE"/>
<rect x="16.5599" y="9.2002" width="9.2" height="4.6" fill="#EEEEEE"/>
<path d="M13.8 4.6V0H4.6H0V23H13.8V18.4H4.6V13.8H11.5V9.2H4.6V4.6H13.8Z" fill="#EEEEEE"/>
</svg>
