<svg width="100" height="25" viewBox="0 0 100 25" fill="none" xmlns="http://www.w3.org/2000/svg">
<path d="M85 0V25H92.5C96.6425 25 100 21.6425 100 17.5V7.5C100 3.3575 96.6425 0 92.5 0H85ZM92.5 20H90V5H92.5C93.8813 5 95 6.11875 95 7.5V17.5C95 18.8812 93.8813 20 92.5 20Z" fill="#F4A442"/>
<path d="M77 0V20H72V0H67V20C67 22.7612 69.2387 25 72 25H77C79.7613 25 82 22.7612 82 20V0H77Z" fill="#F4A442"/>
<path d="M64 0H49V5H54V25H59V5H64V0Z" fill="#3E7C17"/>
<path d="M44.75 5L46 0H36C33.2387 0 31 2.23875 31 5V10C31 12.7612 33.2387 15 36 15H41V20H32.25L31 25H41C43.7613 25 46 22.7612 46 20V15C46 12.2387 43.7613 10 41 10H36V5H44.75Z" fill="#3E7C17"/>
<rect x="18" y="10" width="10" height="5" fill="#6C6C80"/>
<path d="M15 5V0H5H0V25H15V20H5V15H12.5V10H5V5H15Z" fill="#32264D"/>
</svg>
