<svg width="706" height="591" viewBox="0 0 706 591" fill="none" xmlns="http://www.w3.org/2000/svg">
<path fill-rule="evenodd" clip-rule="evenodd" d="M49.5062 618.222C49.5062 618.222 45.0041 641.939 45.7902 656.959C46.5406 671.98 49.8993 684.663 38.787 688.376C27.7104 692.088 11.8459 676.345 5.12853 648.16C-1.58886 619.975 1.87703 597.117 2.01995 595.742C2.16287 594.402 19.7067 588.421 21.1359 588.18C22.5294 587.94 49.5062 618.222 49.5062 618.222Z" fill="white" stroke="black" stroke-width="0.989017" stroke-linecap="round" stroke-linejoin="round"/>
<path fill-rule="evenodd" clip-rule="evenodd" d="M237.415 311.207C237.415 311.207 250.064 329.081 236.665 425.427C223.23 521.772 196.253 671.877 195.217 672.874C189.285 678.579 160.058 671.43 152.232 666.893C158.664 579.999 161.487 494.446 166.168 407.656L162.559 407.175C162.559 407.175 151.482 479.563 137.261 519.298C123.076 558.998 54.4014 621.349 51.0784 623.309C47.7197 625.302 36.3573 618.359 25.4951 608.666C14.6686 598.973 16.0979 587.183 16.0979 587.183C16.0979 587.183 79.5916 510.223 81.1281 496.577C82.6645 482.897 90.6682 348.57 93.7768 330.696C96.8854 312.823 97.6357 311.31 97.6357 311.31L237.415 311.207Z" fill="black" stroke="black" stroke-width="0.395607" stroke-linecap="round" stroke-linejoin="round"/>
<path fill-rule="evenodd" clip-rule="evenodd" d="M262.069 201.798L266.213 240.295L298.586 344.409L277.469 358.502C277.469 358.502 229.553 263.394 224.658 242.77C219.763 222.181 218.477 206.267 218.477 206.267L262.069 201.798Z" fill="#FFDFC8" stroke="black" stroke-width="0.989017" stroke-linecap="round" stroke-linejoin="round"/>
<path fill-rule="evenodd" clip-rule="evenodd" d="M233.127 138.416C233.127 138.416 197.896 114.527 153.125 122.26C95.0269 132.297 79.5912 156.186 83.6645 209.91L104.853 212.385C104.853 212.385 108.212 237.717 103.567 266.04C101.065 281.233 97.7425 295.222 95.2056 304.915C95.1698 305.5 94.9912 306.187 94.6339 307.047C94.2408 308.593 93.8478 310.003 93.4905 311.274C92.8116 317.118 96.742 320.521 100.101 322.308C112.749 327.395 138.19 335.644 169.383 335.301C200.397 334.957 224.658 328.598 236.7 324.68C245.811 321.036 241.988 313.784 239.665 307.459C236.95 299.588 230.59 283.433 229.661 276.077C228.482 267.037 228.482 258.822 228.482 258.822C228.482 258.822 243.453 249.163 245.668 237.717C247.848 226.306 243.739 210.426 243.739 210.426L269.536 205.201C269.536 205.201 265.713 157.32 233.127 138.416Z" fill="#125C13"/>
<path fill-rule="evenodd" clip-rule="evenodd" d="M140.381 216.568L104.936 212.753L90 211C90 211 91.6079 253.691 118.942 290.675C146.312 327.66 175.468 346.805 175.468 346.805C175.468 346.805 175.111 356.98 175.611 359.833C176.111 362.685 177.29 366.913 177.29 366.913C177.29 366.913 171.859 366.295 173.146 372.138C174.432 377.947 181.542 384.409 186.974 387.159C192.405 389.874 196.121 385.577 196.121 385.577C196.121 385.577 200.301 385.234 202.516 384.271C204.696 383.343 205.732 381.728 205.732 381.728C205.732 381.728 211.342 381.418 214.057 378.703C216.773 375.953 218.953 365.057 218.953 365.057C218.953 365.057 240.391 382.656 245.536 382.896C250.717 383.137 249.431 379.975 245.501 375.06C241.57 370.179 224.634 355.742 219.739 350.655C214.844 345.568 188.76 312.777 188.76 312.777L143.203 248.466L140.381 216.568Z" fill="#FFDFC8"/>
<path fill-rule="evenodd" clip-rule="evenodd" d="M240.274 24.9186C262.213 38.3238 261.962 50.4917 258.604 69.3621C255.102 88.92 236.736 127.314 211.082 125.114C229.483 170.28 179.71 173.854 169.419 140.135C166.847 131.679 166.311 121.024 166.311 121.024L175.744 85.0016C175.744 85.0016 163.238 78.8833 163.488 66.8186C163.738 54.7882 174.064 55.51 174.064 55.51C172.635 20.6564 214.655 9.27913 240.274 24.9186Z" fill="#FFDFC8"/>
<path d="M213.016 80.0436C211.292 79.8413 210.094 78.0966 210.342 76.1467C210.589 74.1968 212.187 72.78 213.911 72.9823C215.636 73.1845 216.833 74.9292 216.586 76.8792C216.339 78.8291 214.741 80.2458 213.016 80.0436Z" fill="black"/>
<path d="M244.439 84.7684C242.714 84.5662 241.517 82.8215 241.764 80.8716C242.011 78.9216 243.609 77.5049 245.334 77.7071C247.058 77.9094 248.255 79.6541 248.008 81.604C247.761 83.5539 246.163 84.9707 244.439 84.7684Z" fill="black"/>
<path d="M231.91 77.1301C231.91 77.1301 231.303 85.5857 231.303 89.4354C231.303 93.2851 231.768 95.2444 231.768 95.2444L223.442 96.0006" stroke="black" stroke-width="0.989017" stroke-linecap="round" stroke-linejoin="round"/>
<path fill-rule="evenodd" clip-rule="evenodd" d="M219.978 102.944L208.08 97.3759C208.08 97.3759 206.293 105.385 212.082 107.378C217.906 109.337 219.978 102.944 219.978 102.944Z" stroke="black" stroke-width="0.989017" stroke-linecap="round" stroke-linejoin="round"/>
<path d="M219.656 63.966C219.656 63.966 216.476 63.2786 212.868 63.2786C209.259 63.2786 208.294 63.4848 208.294 63.4848" stroke="black" stroke-width="0.989017" stroke-linecap="round" stroke-linejoin="round"/>
<path d="M243.06 67.6086C243.06 67.6086 245.597 67.7805 248.812 68.846C252.028 69.9116 253.529 71.0802 253.529 71.0802" stroke="black" stroke-width="0.989017" stroke-linecap="round" stroke-linejoin="round"/>
<path d="M175.922 78.0245C175.922 78.0245 177.208 73.2467 176.387 68.4002C175.529 63.5537 171.455 61.0789 171.455 61.0789" stroke="black" stroke-width="0.989017" stroke-linecap="round" stroke-linejoin="round"/>
<path d="M170.704 70.0849L176.385 68.4006" stroke="black" stroke-width="0.989017" stroke-linecap="round" stroke-linejoin="round"/>
<path d="M222.8 104.181L219.979 102.944" stroke="black" stroke-width="0.989017" stroke-linecap="round" stroke-linejoin="round"/>
<path d="M190.071 107.206C192.965 116.486 199.003 120.542 207.257 123.739" stroke="black" stroke-width="0.989017" stroke-linecap="round" stroke-linejoin="round"/>
<path d="M207.865 134.843L210.295 127.556" stroke="black" stroke-width="0.989017" stroke-linecap="round" stroke-linejoin="round"/>
<path d="M236.808 185.025L241.917 205.923" stroke="black" stroke-width="0.989017" stroke-linecap="round" stroke-linejoin="round"/>
<path d="M181.889 190.628C179.777 190.628 178.065 188.874 178.065 186.71C178.065 184.545 179.777 182.791 181.889 182.791C184 182.791 185.712 184.545 185.712 186.71C185.712 188.874 184 190.628 181.889 190.628Z" fill="black"/>
<path d="M209.651 369.399C209.651 369.399 208.829 375.036 208.043 376.961C207.293 378.886 205.649 381.361 205.649 381.361" stroke="black" stroke-width="0.989017" stroke-linecap="round" stroke-linejoin="round"/>
<path d="M199.325 372.01C199.325 372.01 198.432 377.648 197.789 379.71C197.146 381.738 196.038 385.21 196.038 385.21" stroke="black" stroke-width="0.989017" stroke-linecap="round" stroke-linejoin="round"/>
<path d="M188.57 380.639C188.57 380.639 184.176 377.408 181.46 373.696C178.745 369.949 177.208 366.546 177.208 366.546" stroke="black" stroke-width="0.989017" stroke-linecap="round" stroke-linejoin="round"/>
<path d="M220.085 131.645C232.626 190.938 148.087 175.333 154.376 122.056" stroke="white" stroke-width="0.989017" stroke-linecap="round" stroke-linejoin="round"/>
<path d="M198.433 207.745C197.433 195.199 197.719 193.755 196.611 169.557" stroke="white" stroke-width="0.989017" stroke-linecap="round" stroke-linejoin="round"/>
<path d="M89.9176 210.634C89.9176 210.634 91.5255 253.325 118.86 290.309C146.229 327.294 175.386 346.439 175.386 346.439C175.386 346.439 175.028 356.614 175.529 359.467C176.029 362.32 177.208 366.547 177.208 366.547C177.208 366.547 171.777 365.929 173.063 371.772C174.35 377.581 181.46 384.043 186.891 386.793C192.322 389.508 196.038 385.212 196.038 385.212C196.038 385.212 200.219 384.868 202.434 383.905C204.614 382.977 205.65 381.362 205.65 381.362C205.65 381.362 211.26 381.052 213.975 378.337C216.691 375.587 218.87 364.691 218.87 364.691C218.87 364.691 240.309 382.29 245.454 382.53C250.635 382.771 249.349 379.609 245.418 374.694C241.488 369.813 224.551 355.376 219.656 350.289C214.761 345.202 188.678 312.411 188.678 312.411L143.121 248.1L140.298 216.202" stroke="black" stroke-width="0.989017" stroke-linecap="round" stroke-linejoin="round"/>
<path d="M133.117 250.401L143.121 248.098" stroke="black" stroke-width="0.989017" stroke-linecap="round" stroke-linejoin="round"/>
<path d="M258.174 241.671L266.213 240.296" stroke="black" stroke-width="0.989017" stroke-linecap="round" stroke-linejoin="round"/>
<path d="M144.336 189.047L145.693 215.789L114.572 213.451" stroke="black" stroke-width="0.989017" stroke-linecap="round" stroke-linejoin="round"/>
<path d="M184.301 8.33553L184.3 8.33552L184.3 8.3355L184.294 8.33534L184.265 8.3348C184.239 8.33441 184.198 8.33406 184.144 8.33431C184.034 8.33481 183.869 8.33772 183.652 8.34757C183.219 8.36727 182.579 8.41473 181.765 8.52614C180.137 8.74895 177.814 9.22747 175.054 10.2509C169.537 12.2965 162.263 16.5237 155.302 25.2647L155.302 25.2652C151.841 29.5993 148.958 36.1074 146.591 44.0952C144.226 52.0745 142.387 61.4906 140.993 71.609C138.206 91.8454 137.206 114.85 137.331 134.701C137.456 154.628 133.9 166.571 130.276 173.552C128.464 177.043 126.637 179.289 125.25 180.669C124.557 181.359 123.975 181.831 123.561 182.134C123.509 182.171 123.46 182.207 123.413 182.239C123.569 182.407 123.769 182.62 124.011 182.871C124.654 183.541 125.591 184.481 126.759 185.561C129.098 187.721 132.357 190.429 136.051 192.639C139.767 194.844 146.129 196.346 153.203 195.938L153.359 195.929L153.492 196.01C157.082 198.202 162.227 199.428 169.468 197.501L169.469 197.5C174.307 196.228 177.637 193.532 179.931 189.854C182.235 186.16 183.504 181.456 184.161 176.169C184.817 170.885 184.858 165.057 184.733 159.137C184.687 156.957 184.618 154.76 184.55 152.575C184.433 148.843 184.317 145.144 184.317 141.613C184.317 130.483 182.581 116.766 180.84 105.816C179.97 100.344 179.1 95.5691 178.448 92.1627C178.121 90.4595 177.85 89.0986 177.659 88.1638C177.564 87.6964 177.49 87.3355 177.439 87.0917C177.423 87.0174 177.41 86.954 177.399 86.9017L175.476 85.4277C175.45 85.4149 175.415 85.3968 175.37 85.3735C175.275 85.3236 175.136 85.2498 174.961 85.1519C174.611 84.9561 174.113 84.6641 173.519 84.2762C172.33 83.5009 170.747 82.3389 169.17 80.7915C166.02 77.7001 162.857 73.0298 162.986 66.8085L163.486 66.8189L162.986 66.8085C163.05 63.728 163.761 61.4267 164.819 59.7138C165.877 58.0002 167.266 56.904 168.642 56.2072C170.014 55.5123 171.373 55.2145 172.384 55.0893C172.89 55.0266 173.313 55.0068 173.612 55.0029C173.761 55.0009 173.879 55.0028 173.962 55.0054C174.003 55.0067 174.036 55.0081 174.058 55.0093L174.085 55.0108L174.093 55.0113L174.096 55.0114L174.097 55.0115C174.097 55.0115 174.097 55.0116 174.063 55.5103L174.097 55.0116L174.114 55.0128L174.131 55.0151C176.994 55.4136 178.861 56.8009 180.112 58.5153L180.118 58.5232L180.123 58.5313C180.829 59.583 181.299 61.071 181.656 62.628C181.943 63.8807 182.168 65.2234 182.377 66.4793C182.43 66.7927 182.481 67.1007 182.532 67.4005C182.794 68.9285 183.047 70.215 183.385 71.0255C183.557 71.4385 183.717 71.6396 183.834 71.7164C183.881 71.7472 183.916 71.7553 183.951 71.7548C183.991 71.7542 184.065 71.7412 184.178 71.6769C184.445 71.526 184.803 71.1813 185.234 70.6266C185.656 70.0841 186.116 69.3843 186.596 68.5759C187.556 66.9601 188.576 64.9471 189.511 62.9741C190.445 61.0031 191.291 59.0811 191.904 57.6513C192.21 56.9366 192.458 56.3453 192.629 55.933C192.714 55.7268 192.781 55.5654 192.826 55.4557L192.877 55.3307L192.889 55.2989L192.893 55.291L192.893 55.2891L192.894 55.2886C192.894 55.2885 192.894 55.2885 193.357 55.476L192.894 55.2885L193.271 54.3557L193.786 55.2183L193.786 55.2188L193.786 55.2188L193.786 55.2192L193.787 55.2197L193.79 55.2254C193.794 55.2322 193.802 55.2437 193.812 55.2593C193.833 55.2905 193.865 55.3377 193.91 55.3964C193.999 55.5143 194.132 55.6753 194.307 55.8434C194.662 56.1832 195.16 56.5268 195.782 56.633C196.964 56.8349 198.988 56.2141 201.682 51.7132L201.683 51.7125C204.349 47.2745 205.559 42.1426 206.1 38.0989C206.37 36.0808 206.471 34.3424 206.505 33.1098C206.523 32.4937 206.523 32.0045 206.519 31.6705C206.517 31.5035 206.514 31.3754 206.511 31.2896C206.51 31.2467 206.509 31.2144 206.508 31.1932L206.507 31.1696L206.507 31.1642L206.507 31.1631L206.448 29.8586L207.363 30.7898L207.363 30.7899L207.364 30.7905L207.367 30.7935L207.379 30.8064L207.432 30.8591C207.479 30.906 207.55 30.9763 207.645 31.0687C207.834 31.2535 208.117 31.5267 208.492 31.8778C209.243 32.58 210.36 33.594 211.823 34.8366C214.749 37.322 219.057 40.721 224.576 44.369C228.971 47.2724 236.014 50.2289 242.917 52.7375C249.632 55.1776 256.171 57.1787 259.918 58.2799L260.601 58.3269L260.601 58.3308L260.566 58.8769L260.525 59.4997L260.505 59.4939C260.22 62.6191 259.698 65.9319 259.095 69.4471L259.094 69.4505C257.33 79.3 251.836 93.8559 243.558 105.684C235.467 117.246 224.605 126.351 211.852 125.669C212.197 126.523 212.507 127.37 212.796 128.198C219.183 130.536 224.307 132.968 227.846 134.824C229.637 135.763 231.022 136.555 231.962 137.113C232.431 137.392 232.79 137.612 233.031 137.764C233.152 137.839 233.243 137.898 233.305 137.937L233.375 137.983L233.387 137.99C241.389 142.605 247.624 148.97 252.534 155.909C259.881 148.903 265.549 138.074 268.762 123.665L268.762 123.665C273.144 104.111 274.238 81.8349 270.798 61.7647C267.356 41.6858 259.39 23.8824 245.716 13.1791C228.012 -0.643153 203.561 -4.4551 184.596 8.25119L184.462 8.34092L184.301 8.33553Z" fill="#F4A442" stroke="black"/>
<path d="M204.042 24.9185C204.042 24.9185 200.683 19.4533 196.574 15.2255C192.429 10.9977 188.07 9.27905 188.07 9.27905" stroke="white" stroke-width="0.989017" stroke-linecap="round" stroke-linejoin="round"/>
<path d="M220.833 25.6753C220.833 25.6753 238.127 34.3715 243.808 39.0805C249.49 43.7896 251.276 45.6457 251.276 45.6457" stroke="white" stroke-width="0.989017" stroke-linecap="round" stroke-linejoin="round"/>
<path d="M213.868 16.1205C213.868 16.1205 222.265 15.5018 227.66 17.5985C233.091 19.6952 239.451 24.4386 239.451 24.4386" stroke="white" stroke-width="0.989017" stroke-linecap="round" stroke-linejoin="round"/>
<path d="M219.299 7.52632C219.299 7.52632 214.118 6.90762 210.009 7.66381C205.864 8.42 203.399 8.90121 203.399 8.90121" stroke="white" stroke-width="0.989017" stroke-linecap="round" stroke-linejoin="round"/>
<path d="M185.999 29.5249C185.999 29.5249 182.39 36.2275 181.354 38.2211C180.317 40.1804 178.638 42.3114 178.638 42.3114" stroke="white" stroke-width="0.989017" stroke-linecap="round" stroke-linejoin="round"/>
<path d="M174.387 29.0095C174.387 29.0095 166.383 40.1806 164.453 44.7865C162.488 49.3924 160.166 52.864 160.166 52.864" stroke="white" stroke-width="0.989017" stroke-linecap="round" stroke-linejoin="round"/>
<path d="M169.096 123.98C169.096 123.98 169.382 144.604 170.133 152.785C170.848 161 169.847 163.99 169.847 163.99" stroke="white" stroke-width="0.989017" stroke-linecap="round" stroke-linejoin="round"/>
<path d="M159.807 108.855L160.056 137.659" stroke="white" stroke-width="0.989017" stroke-linecap="round" stroke-linejoin="round"/>
<path d="M149.516 122.915C149.516 122.915 150.767 132.436 149.73 137.661C148.694 142.851 148.158 145.36 148.158 145.36" stroke="white" stroke-width="0.989017" stroke-linecap="round" stroke-linejoin="round"/>
<path d="M171.741 22.2028C171.741 22.2028 168.454 23.6808 166.132 26.9805C163.809 30.2459 163.094 32.1708 163.094 32.1708" stroke="white" stroke-width="0.989017" stroke-linecap="round" stroke-linejoin="round"/>
<path d="M252.314 131.955C255.602 126.868 257.531 119.443 257.96 113.394" stroke="white" stroke-width="0.989017" stroke-linecap="round" stroke-linejoin="round"/>
<path d="M244.845 122.261L245.99 118.171" stroke="white" stroke-width="0.989017" stroke-linecap="round" stroke-linejoin="round"/>
<path d="M108.676 339.53C108.676 339.53 112.178 345.855 114.893 348.708C117.609 351.561 119.288 352.936 119.288 352.936" stroke="white" stroke-width="0.989017" stroke-linecap="round" stroke-linejoin="round"/>
<path d="M107.531 351.8L113.712 359.396" stroke="white" stroke-width="0.989017" stroke-linecap="round" stroke-linejoin="round"/>
<path d="M409.351 202.796C409.208 203.071 411.602 226.066 412.352 233.422L409.351 202.796ZM409.351 202.796C409.458 202.487 419.641 199.393 419.641 188.463C419.641 177.532 410.709 178.907 410.709 178.907L409.351 202.796ZM329.278 158.937C328.706 163.199 328.921 167.908 329.207 172.961C330.243 191.591 335.281 212.558 345.75 227.097C353.432 237.787 364.151 238.99 369.261 238.887" stroke="black" stroke-width="0.989017" stroke-linecap="round" stroke-linejoin="round"/>
<path fill-rule="evenodd" clip-rule="evenodd" d="M502.216 415.459C502.216 415.459 510.72 479.254 484.673 501.356C458.589 523.457 398.954 544.837 398.954 544.837C398.954 544.837 401.67 707.075 399.991 711.199C398.311 715.29 388.628 724.604 370.834 725.979C353.004 727.32 347.216 715.53 347.216 715.53L316.881 550.164C316.881 550.164 318.31 688.479 317.131 691.435C315.987 694.425 305.518 704.978 289.761 704.737C274.039 704.462 266.679 692.947 266.679 692.947C266.679 692.947 236.343 538.959 238.666 512.664C240.988 486.335 251.815 465.986 286.402 447.116C320.99 428.211 347.573 407.622 347.573 407.622L502.216 415.459Z" fill="black" stroke="black" stroke-width="0.989017" stroke-linecap="round" stroke-linejoin="round"/>
<path fill-rule="evenodd" clip-rule="evenodd" d="M454.944 474.443L381.267 513.422L253.993 482.383L220.335 416.801L210.759 397.071L217.012 391.709L227.338 393.84C252.457 398.755 337.211 416.388 337.211 416.388L342.499 417.66C344.571 422.679 347.108 427.181 349.752 431.547L357.899 449.042L359.685 449.489L454.944 474.443Z" fill="#F4A442"/>
<path d="M378.838 508.401L336.604 422.299L215.834 397.963" stroke="white" stroke-width="0.989017" stroke-linecap="round" stroke-linejoin="round"/>
<path fill-rule="evenodd" clip-rule="evenodd" d="M425.787 461.93C422.071 465.333 413.282 473.616 409.137 478.36C403.849 484.444 402.169 487.468 398.596 487.675C395.059 487.847 394.38 487.022 393.665 486.575C393.665 486.575 391.307 488.981 388.199 488.568C385.126 488.156 384.304 486.644 384.304 486.644C384.304 486.644 382.339 487.159 380.481 486.506C378.587 485.853 378.515 484.375 378.515 484.375C378.515 484.375 374.871 483.516 373.799 479.838C372.691 476.194 374.085 470.97 374.085 470.97C374.085 470.97 370.69 466.433 373.335 460.417C375.728 454.952 385.59 440.447 394.809 433.779L425.787 461.93Z" fill="#BC8567"/>
<path d="M408.387 467.053C404.885 470.937 395.309 482.108 393.666 486.576" stroke="black" stroke-width="0.989017" stroke-linecap="round" stroke-linejoin="round"/>
<path d="M399.667 463.031C399.667 463.031 396.202 466.262 391.306 472.999C386.376 479.771 385.554 483.895 384.482 486.886" stroke="black" stroke-width="0.989017" stroke-linecap="round" stroke-linejoin="round"/>
<path d="M391.736 458.252C385.661 464.439 379.945 475.954 378.515 484.376" stroke="black" stroke-width="0.989017" stroke-linecap="round" stroke-linejoin="round"/>
<path d="M385.34 453.751C381.266 457.944 376.586 465.747 374.085 470.971" stroke="black" stroke-width="0.989017" stroke-linecap="round" stroke-linejoin="round"/>
<path d="M425.787 461.93C422.071 465.333 413.282 473.616 409.137 478.36C403.849 484.444 402.169 487.468 398.596 487.675C395.059 487.847 394.38 487.022 393.665 486.575C393.665 486.575 391.307 488.981 388.199 488.568C385.126 488.156 384.304 486.644 384.304 486.644C384.304 486.644 382.339 487.159 380.481 486.506C378.587 485.853 378.515 484.375 378.515 484.375C378.515 484.375 374.871 483.516 373.799 479.838C372.691 476.194 374.085 470.97 374.085 470.97C374.085 470.97 370.69 466.433 373.335 460.417C375.728 454.952 385.59 440.447 394.809 433.779" stroke="black" stroke-width="0.989017" stroke-linecap="round" stroke-linejoin="round"/>
<path fill-rule="evenodd" clip-rule="evenodd" d="M464.913 255.387C464.913 255.387 442.974 236.757 397.56 231.051C352.11 225.345 306.946 234.626 289.653 276.251C272.359 317.842 276.289 370.294 278.326 404.185L326.277 414.119L330.386 350.392C330.386 350.392 337.389 402.879 337.639 409.822C337.889 416.765 347.715 421.749 359.078 425.977C370.44 430.171 390.95 430.308 390.95 430.308L426.323 462.412C426.323 462.412 515.364 431.786 524.905 392.808C534.481 353.83 493.033 271.748 464.913 255.387Z" fill="#F4A442"/>
<path d="M449.62 320.695L469.236 377.306C469.236 377.306 432.827 401.023 420.178 409.582C407.529 418.14 390.95 430.308 390.95 430.308" stroke="black" stroke-width="0.989017" stroke-linecap="round" stroke-linejoin="round"/>
<path d="M319.666 286.666L326.955 326.572L332.994 368.85" stroke="black" stroke-width="0.989017" stroke-linecap="round" stroke-linejoin="round"/>
<path d="M422.929 236C422.929 236 412.781 264.494 387.734 265.01C362.687 265.491 363.008 246.552 362.901 241.224C362.758 235.896 363.794 228.713 363.794 228.713" stroke="white" stroke-width="0.989017" stroke-linecap="round" stroke-linejoin="round"/>
<path fill-rule="evenodd" clip-rule="evenodd" d="M376.872 343.965L392.379 398.721L266.392 372.872L250.385 321.245L376.872 343.965Z" fill="#3E7C17"/>
<path fill-rule="evenodd" clip-rule="evenodd" d="M363.866 352.385L366.546 361.837L354.755 359.431L351.968 349.944L363.866 352.385Z" fill="white"/>
<path fill-rule="evenodd" clip-rule="evenodd" d="M368.617 371.462L371.297 380.915L359.47 378.474L356.719 369.022L368.617 371.462Z" fill="white"/>
<path d="M339.678 352.145L273.718 339.737" stroke="white" stroke-width="0.989017" stroke-linecap="round" stroke-linejoin="round"/>
<path d="M342.034 370.671L276.11 358.263" stroke="white" stroke-width="0.989017" stroke-linecap="round" stroke-linejoin="round"/>
<path fill-rule="evenodd" clip-rule="evenodd" d="M365.366 137.695C327.92 140.17 328.17 154.332 329.207 172.961C330.243 191.591 335.281 212.558 345.75 227.098C353.432 237.788 364.151 238.991 369.261 238.888C367.76 246.072 370.011 259.305 389.985 258.205C409.923 257.071 416.962 234.522 416.962 234.522C416.962 234.522 414.103 233.904 412.352 233.423C411.602 226.067 409.208 203.072 409.351 202.797C409.458 202.487 419.641 199.394 419.641 188.463C419.641 177.533 410.709 178.908 410.709 178.908C407.1 153.644 398.989 135.461 365.366 137.695Z" fill="#BC8567"/>
<path fill-rule="evenodd" clip-rule="evenodd" d="M329.064 160.965C335.853 161.344 343.892 161.034 352.217 160.415C351.681 161.687 351.396 163.406 352.36 165.09C354.326 168.39 368.582 162.031 368.582 162.031C368.582 162.031 369.94 167.152 377.086 166.19C382.66 165.468 386.769 162.718 388.341 161.481L388.663 161.55C388.663 161.55 395.809 184.648 396.274 187.467C396.702 190.251 402.133 180.695 410.709 178.908C410.709 178.908 419.642 177.533 419.642 188.463C419.642 199.394 409.458 202.487 409.351 202.797C409.28 202.934 409.78 208.021 410.387 214.174C410.387 214.174 415.818 211.493 421.893 199.325C427.931 187.157 432.469 156.669 418.284 141.511C404.063 126.352 375.3 124.634 367.689 122.503C360.042 120.406 325.669 111.607 320.56 116.728C315.45 121.884 324.883 128.793 324.883 128.793C324.883 128.793 314.128 128.724 312.056 133.055C309.984 137.42 320.81 141.133 320.953 142.507C321.096 143.882 313.664 147.526 312.949 153.988C312.235 160.45 329.064 160.965 329.064 160.965Z" fill="black" stroke="#43302D" stroke-width="0.989017" stroke-linecap="round" stroke-linejoin="round"/>
<path d="M357.362 192.726C357.219 199.567 356.862 204.241 355.647 210.978C357.898 211.666 361.257 212.044 363.543 211.494" stroke="black" stroke-width="0.989017" stroke-linecap="round" stroke-linejoin="round"/>
<path d="M375.762 197.877C374.213 198.009 372.828 196.707 372.668 194.969C372.508 193.23 373.634 191.715 375.183 191.583C376.731 191.451 378.116 192.753 378.276 194.491C378.436 196.229 377.31 197.745 375.762 197.877Z" fill="black"/>
<path d="M382.015 186.331C380.014 185.335 376.263 184.166 372.797 183.341" stroke="black" stroke-width="0.989017" stroke-linecap="round" stroke-linejoin="round"/>
<path d="M344.427 183.307C343.999 183.376 343.57 183.445 343.213 183.514C340.89 183.926 339.247 184.51 339.247 184.51" stroke="black" stroke-width="0.989017" stroke-linecap="round" stroke-linejoin="round"/>
<path fill-rule="evenodd" clip-rule="evenodd" d="M362.329 221.875C362.329 221.875 369.761 218.575 373.299 217.166C376.836 215.722 378.98 214.553 378.98 214.553C378.98 214.553 380.338 222.184 374.192 224.556C368.082 226.893 362.329 221.875 362.329 221.875Z" fill="white" stroke="black" stroke-width="0.989017" stroke-linecap="round" stroke-linejoin="round"/>
<path d="M414.174 183.927C414.174 183.927 410.172 186.093 407.457 189.633C404.777 193.173 403.741 197.951 403.741 197.951" stroke="black" stroke-width="0.989017" stroke-linecap="round" stroke-linejoin="round"/>
<path d="M412.315 194.652L407.456 189.634" stroke="black" stroke-width="0.989017" stroke-linecap="round" stroke-linejoin="round"/>
<path d="M401.205 216.993C401.205 216.993 397.989 226.927 390.235 233.011C382.517 239.095 369.261 238.889 369.261 238.889" stroke="black" stroke-width="0.989017" stroke-linecap="round" stroke-linejoin="round"/>
<path d="M346.655 196.698C345.106 196.83 343.721 195.528 343.561 193.79C343.401 192.052 344.527 190.536 346.076 190.404C347.624 190.272 349.009 191.574 349.169 193.312C349.329 195.051 348.204 196.566 346.655 196.698Z" fill="black"/>
<path d="M359.615 222.836L362.329 221.874" stroke="black" stroke-width="0.989017" stroke-linecap="round" stroke-linejoin="round"/>
<path d="M438.363 457.84C438.363 457.84 426.501 444.16 415.924 435.463C405.348 426.767 400.096 423.674 400.096 423.674" stroke="black" stroke-width="0.989017" stroke-linecap="round" stroke-linejoin="round"/>
<path d="M395.416 434.364L404.67 426.768" stroke="black" stroke-width="0.989017" stroke-linecap="round" stroke-linejoin="round"/>
<path d="M422.105 458.561L433.146 452.064" stroke="black" stroke-width="0.989017" stroke-linecap="round" stroke-linejoin="round"/>
<path d="M417.176 454.093L427.788 446.462" stroke="black" stroke-width="0.989017" stroke-linecap="round" stroke-linejoin="round"/>
<path d="M411.567 449.007L422.536 441.342" stroke="black" stroke-width="0.989017" stroke-linecap="round" stroke-linejoin="round"/>
<path d="M406.1 444.057L416.283 435.773" stroke="black" stroke-width="0.989017" stroke-linecap="round" stroke-linejoin="round"/>
<path d="M400.563 439.038L410.246 430.927" stroke="black" stroke-width="0.989017" stroke-linecap="round" stroke-linejoin="round"/>
<path d="M359.756 452.581L383.124 501.871" stroke="black" stroke-width="0.989017" stroke-linecap="round" stroke-linejoin="round"/>
<path d="M498.57 384.73C485.243 378.99 478.561 377.546 469.235 377.305" stroke="black" stroke-width="0.989017" stroke-linecap="round" stroke-linejoin="round"/>
<path d="M320.81 503.555C320.81 503.555 311.878 515.001 313.557 528.509C315.236 542.052 317.13 559.444 317.845 559.307" stroke="white" stroke-width="0.989017" stroke-linecap="round" stroke-linejoin="round"/>
<path d="M329.065 143.401C336.139 140.789 346.466 138.589 359.65 139.036" stroke="white" stroke-width="0.989017" stroke-linecap="round" stroke-linejoin="round"/>
<path d="M334.03 127.624C341.533 127.555 346.25 127.624 355.075 129.171" stroke="white" stroke-width="0.989017" stroke-linecap="round" stroke-linejoin="round"/>
<path d="M352.003 151.582C356.147 150.001 361.507 148.558 367.974 147.767" stroke="white" stroke-width="0.989017" stroke-linecap="round" stroke-linejoin="round"/>
<path d="M404.886 175.712C404.672 172.516 404.279 168.872 403.492 165.229C403.135 163.51 402.706 161.791 402.17 160.141" stroke="white" stroke-width="0.989017" stroke-linecap="round" stroke-linejoin="round"/>
<path d="M410.887 169.627C410.494 164.883 409.6 159.212 407.849 154.09" stroke="white" stroke-width="0.989017" stroke-linecap="round" stroke-linejoin="round"/>
<path d="M417.532 173.375C417.532 170.694 417.389 167.738 417.067 164.713" stroke="white" stroke-width="0.989017" stroke-linecap="round" stroke-linejoin="round"/>
<path d="M592.652 257.827L582.075 236.516M582.075 236.516C585.041 234.832 589.472 231.326 591.651 224.727C595.189 214.174 586.756 208.778 586.756 208.778L582.075 236.516ZM505.468 171.656C502.288 179.389 501.645 189.598 501.86 202.9C502.396 233.698 509.042 258.584 517.76 266.42C526.478 274.257 539.806 270.751 539.806 270.751" stroke="black" stroke-width="0.989017" stroke-linecap="round" stroke-linejoin="round"/>
<path fill-rule="evenodd" clip-rule="evenodd" d="M489.319 332.621C489.319 332.621 495.286 397.172 497.608 420.546C499.931 443.885 497.608 474.407 497.608 474.407C497.608 474.407 483.923 492.556 481.315 500.977C478.742 509.433 485.067 517.373 485.067 517.373C485.067 517.373 486.496 522.975 488.676 523.319C490.891 523.697 493.606 522.838 493.606 522.838C493.606 522.838 494.786 524.935 496.965 525.657C499.109 526.378 501.36 524.35 501.36 524.35C501.36 524.35 504.111 525.932 505.505 524.625C506.898 523.319 509.149 520.019 509.149 520.019C509.149 520.019 514.295 518.576 518.618 514.932C522.942 511.254 532.91 503.658 533.982 485.922C535.054 468.186 539.664 463.339 538.377 433.298C537.091 403.256 533.982 335.199 533.982 335.199L489.319 332.621Z" fill="#FFDFC8"/>
<path d="M519.723 497.883C519.723 497.883 514.399 504.414 511.684 510.326C508.968 516.204 509.147 520.019 509.147 520.019" stroke="black" stroke-width="0.989017" stroke-linecap="round" stroke-linejoin="round"/>
<path d="M506.789 497.471C506.789 497.471 504.252 502.971 502.715 510.67C501.179 518.37 500.786 522.598 500.786 522.598" stroke="black" stroke-width="0.989017" stroke-linecap="round" stroke-linejoin="round"/>
<path d="M497.856 497.162C497.856 497.162 494.248 504.964 493.533 510.808C492.854 516.651 493.283 521.429 493.283 521.429" stroke="black" stroke-width="0.989017" stroke-linecap="round" stroke-linejoin="round"/>
<path d="M489.997 494.034C489.997 494.034 487.46 501.39 486.388 505.927C485.352 510.498 485.28 515.448 485.28 515.448" stroke="black" stroke-width="0.989017" stroke-linecap="round" stroke-linejoin="round"/>
<path d="M489.319 332.621C489.319 332.621 495.286 397.172 497.608 420.546C499.931 443.885 497.608 474.407 497.608 474.407C497.608 474.407 483.923 492.556 481.315 500.977C478.742 509.433 485.067 517.373 485.067 517.373C485.067 517.373 486.496 522.975 488.676 523.319C490.891 523.697 493.606 522.838 493.606 522.838C493.606 522.838 494.786 524.935 496.965 525.657C499.109 526.378 501.36 524.35 501.36 524.35C501.36 524.35 504.111 525.932 505.505 524.625C506.898 523.319 509.149 520.019 509.149 520.019C509.149 520.019 514.295 518.576 518.618 514.932C522.942 511.254 532.91 503.658 533.982 485.922C535.054 468.186 539.664 463.339 538.377 433.298C537.091 403.256 533.982 335.199 533.982 335.199" stroke="black" stroke-width="0.989017" stroke-linecap="round" stroke-linejoin="round"/>
<path fill-rule="evenodd" clip-rule="evenodd" d="M701.737 437.182C701.737 437.182 708.705 492.041 666.364 585.912C624.022 679.783 564.674 775.75 547.63 794.243C530.586 812.735 522.225 818.957 522.225 818.957L474.453 793.246L476.383 789.981C476.383 789.981 468.057 787.059 455.23 780.081C442.367 773.138 438.651 770.285 438.651 770.285C438.651 770.285 527.799 498.709 533.481 474.854C539.162 451.034 540.198 444.572 540.198 444.572L701.737 437.182Z" fill="black" stroke="black" stroke-width="0.395607" stroke-linecap="round" stroke-linejoin="round"/>
<path fill-rule="evenodd" clip-rule="evenodd" d="M636.17 255.902C636.17 255.902 584.038 258.893 528.298 249.715C494.711 254.184 483.849 271.92 480.383 291.856C476.917 311.792 480.526 342.315 480.526 342.315C480.526 342.315 491.889 347.402 503.644 349.773C515.364 352.145 522.331 353.004 522.331 353.004L533.444 447.357C533.444 447.357 533.694 460.04 562.85 464.234C592.042 468.461 634.097 469.699 665.862 462.274C697.591 454.815 709.204 448.113 706.381 437.182C703.558 426.252 679.797 345.202 679.797 345.202L714.956 332.003L722.353 328.944L682.37 276.766C682.37 276.766 661.217 254.906 636.17 255.902Z" fill="#3E7C17"/>
<path fill-rule="evenodd" clip-rule="evenodd" d="M580.823 364.794C580.823 364.794 579.68 359.157 575.392 357.92C571.104 356.717 536.803 350.77 536.803 350.77C534.016 350.049 530.478 352.214 528.942 354.311C528.192 355.514 527.977 356.167 527.942 357.611C527.763 363.557 537.017 435.395 537.017 435.395C537.017 435.395 537.446 438.901 540.912 440.448C543.806 441.72 571.819 445.741 580.252 446.944C580.43 446.979 580.609 446.979 580.823 447.048L582.86 447.323C583.503 447.357 584.039 447.323 584.504 447.219C584.504 447.219 591.185 446.773 590.756 441.582C590.935 440.276 590.685 439.073 590.685 439.073L580.823 364.794Z" fill="#FAE4C5" stroke="black" stroke-width="0.989017" stroke-linecap="round" stroke-linejoin="round"/>
<path fill-rule="evenodd" clip-rule="evenodd" d="M710.027 333.859L723.712 359.811C723.712 359.811 741.256 389.852 711.313 402.501C681.371 415.15 609.623 442.992 609.623 442.992C609.623 442.992 588.864 446.498 570.391 443.989C551.954 441.514 549.417 433.367 549.417 433.367C549.417 433.367 546.201 432.096 545.879 429.415C545.558 426.734 547.237 424.74 547.237 424.74C545.129 422.093 545.022 417.487 548.666 416.869C550.489 416.559 549.56 411.644 556.777 411.403C563.995 411.163 570.284 413.019 575.822 412.95C581.36 412.882 587.077 411.919 587.077 411.919L584.647 393.77C584.647 393.77 606.014 414.016 608.48 413.397C610.91 412.778 675.404 372.15 675.404 372.15L661.183 352.18L710.027 333.859Z" fill="#FFDFC8"/>
<path d="M582.075 421.37C578.93 421.542 574.285 421.577 568.39 420.855C557.027 419.48 549.738 416.627 549.738 416.627" stroke="black" stroke-width="0.989017" stroke-linecap="round" stroke-linejoin="round"/>
<path d="M581.932 430.067C571.177 430.342 552.24 428.245 547.023 424.464" stroke="black" stroke-width="0.989017" stroke-linecap="round" stroke-linejoin="round"/>
<path d="M582.252 437.354C569.925 438.179 560.349 436.254 549.201 433.092" stroke="black" stroke-width="0.989017" stroke-linecap="round" stroke-linejoin="round"/>
<path d="M628.49 317.394L652.858 354.069L679.871 345.373" stroke="black" stroke-width="0.989017" stroke-linecap="round" stroke-linejoin="round"/>
<path d="M516.402 318.048L521.262 346.646" stroke="black" stroke-width="0.989017" stroke-linecap="round" stroke-linejoin="round"/>
<path d="M599.76 256.177C604.691 289.449 584.539 302.27 565.352 301.961C537.017 301.514 527.298 277.556 533.158 253.874" stroke="white" stroke-width="0.989017" stroke-linecap="round" stroke-linejoin="round"/>
<path fill-rule="evenodd" clip-rule="evenodd" d="M535.874 152.579C505.253 157.735 501.037 172.068 501.859 202.9C502.716 233.698 509.041 258.583 517.759 266.42C526.477 274.257 539.805 270.751 539.805 270.751C538.233 286.528 555.812 295.912 570.819 293.197C570.855 293.197 570.891 293.162 570.962 293.162C571.141 293.128 571.319 293.093 571.498 293.059C571.641 293.025 571.748 292.99 571.891 292.99C597.546 287.422 592.651 257.827 592.651 257.827L582.074 236.516C585.04 234.832 589.471 231.326 591.65 224.727C595.188 214.174 586.755 208.778 586.755 208.778C606.8 174.096 572.141 146.529 535.874 152.579Z" fill="#FFDFC8"/>
<path d="M584.826 213.795C584.826 213.795 579.823 213.864 577.501 220.223C575.214 226.581 580.181 231.462 580.181 231.462" stroke="black" stroke-width="0.989017" stroke-linecap="round" stroke-linejoin="round"/>
<path d="M584.469 224.348L577.501 220.223" stroke="black" stroke-width="0.989017" stroke-linecap="round" stroke-linejoin="round"/>
<path d="M547.808 218.607C547.808 218.607 547.165 212.454 541.627 211.973C536.053 211.492 536.124 216.785 536.124 216.785" stroke="black" stroke-width="0.989017" stroke-linecap="round" stroke-linejoin="round"/>
<path d="M519.332 216.237C519.332 216.237 518.689 210.085 513.151 209.603C507.613 209.157 507.684 214.415 507.684 214.415" stroke="black" stroke-width="0.989017" stroke-linecap="round" stroke-linejoin="round"/>
<path d="M525.762 212.111C525.762 212.111 524.797 221.117 521.903 227.407C519.009 233.663 525.691 234.419 525.691 234.419" stroke="black" stroke-width="0.989017" stroke-linecap="round" stroke-linejoin="round"/>
<path fill-rule="evenodd" clip-rule="evenodd" d="M524.727 246.004C526.299 245.66 528.121 245.144 530.051 244.354C535.017 242.326 540.377 238.27 540.377 238.27C540.377 238.27 543.95 246.794 534.946 251.709C533.767 252.362 532.659 252.741 531.623 252.947L524.727 246.004Z" stroke="black" stroke-width="0.989017" stroke-linecap="round" stroke-linejoin="round"/>
<path d="M539.805 270.751C547.845 268.62 556.456 265.251 564.889 255.867" stroke="black" stroke-width="0.989017" stroke-linecap="round" stroke-linejoin="round"/>
<path fill-rule="evenodd" clip-rule="evenodd" d="M504.181 174.748C513.114 172.858 543.914 167.186 556.813 175.573C571.998 185.438 567.211 202.899 565.96 207.746C564.674 212.627 568.461 215.583 569.89 217.886C569.89 217.886 575.357 204.515 586.755 208.777C586.755 208.777 591.329 211.699 592.329 217.439V217.473V217.508C592.365 217.714 592.401 217.92 592.437 218.161V218.195C592.472 218.504 592.508 218.848 592.508 219.192C592.508 219.501 592.544 219.811 592.508 220.154V220.189C592.508 220.67 592.472 221.185 592.365 221.735V221.77C592.329 221.976 592.294 222.217 592.258 222.457V222.492V222.526V222.56L592.222 222.595V222.629V222.663V222.698V222.732L592.186 222.767V222.801V222.835V222.87V222.904L592.151 222.938V222.973V223.007V223.042L592.115 223.076V223.11V223.145V223.179V223.213L592.079 223.248V223.282V223.317V223.351L592.043 223.385V223.42V223.454V223.488L592.008 223.523V223.557V223.591V223.626L591.972 223.66V223.695V223.729L591.936 223.763V223.798V223.832V223.866L591.901 223.901V223.935V223.97V224.004V224.038L591.865 224.073V224.107V224.141L591.829 224.176V224.21V224.245L591.793 224.279V224.313V224.348L591.758 224.382V224.416V224.451L591.722 224.485V224.52V224.554L591.686 224.588V224.623V224.657V224.691L591.65 224.726L591.579 224.966V225.035L591.543 225.104L591.472 225.241V225.31L591.436 225.344L591.4 225.482L591.365 225.619H591.329L591.257 225.86L591.222 225.929L591.186 225.998L591.114 226.204V226.238L591.007 226.479L590.972 226.513L590.864 226.754V226.788V226.822L590.793 226.926L590.757 227.063L590.721 227.097L590.65 227.269L590.614 227.338L590.579 227.407L590.507 227.51L590.471 227.579V227.613L590.4 227.751L590.364 227.854L590.328 227.888L590.257 228.06L590.221 228.129L590.185 228.163L590.114 228.266L590.078 228.369V228.404L589.935 228.61L589.9 228.713L589.828 228.816L589.792 228.885L589.757 228.919L589.721 229.022L589.65 229.125L589.578 229.229L589.542 229.332L589.507 229.366L589.471 229.435L589.399 229.504L589.364 229.572L589.328 229.607L589.292 229.71L589.221 229.813L589.149 229.916L589.078 230.019V230.053L589.042 230.088L588.971 230.191L588.899 230.26V230.294L588.828 230.363L588.756 230.466V230.5L588.721 230.569L588.649 230.638L588.613 230.707L588.578 230.741L588.506 230.844L588.435 230.913L588.363 231.016L588.292 231.085V231.119L588.256 231.188L588.185 231.257L588.149 231.325L588.113 231.36L588.042 231.428L587.97 231.532C586.005 233.972 583.79 235.553 582.075 236.516L587.649 247.755C590.185 245.968 594.473 242.565 595.188 239.472C596.188 235.003 594.795 231.016 594.795 231.016C594.795 231.016 607.979 220.189 603.763 209.636C605.514 209.396 607.944 208.536 608.087 205.271C608.301 200.115 603.799 196.265 603.799 196.265C603.799 196.265 612.517 194.237 609.695 178.289C606.908 162.34 593.759 165.777 592.544 158.937C591.365 152.131 585.183 141.854 570.927 144.157C556.67 146.46 550.667 144.776 547.094 140.101C543.521 135.426 532.695 132.333 527.013 137.111C521.296 141.923 515.186 148.282 509.863 148.282C504.503 148.282 494.748 149.622 493.069 162.477C491.39 175.298 504.181 174.748 504.181 174.748Z" fill="#F4A442" stroke="black" stroke-width="0.989017" stroke-linecap="round" stroke-linejoin="round"/>
<path d="M550.487 203.931C550.487 203.931 549.344 202.178 544.771 200.631C540.233 199.084 537.481 199.6 537.481 199.6" stroke="black" stroke-width="0.989017" stroke-linecap="round" stroke-linejoin="round"/>
<path d="M518.261 198.534C518.261 198.534 513.937 197.709 510.972 198.465C508.006 199.187 506.898 200.218 506.898 200.218" stroke="black" stroke-width="0.989017" stroke-linecap="round" stroke-linejoin="round"/>
<path d="M545.952 276.972L543.379 269.995" stroke="black" stroke-width="0.989017" stroke-linecap="round" stroke-linejoin="round"/>
<path d="M689.66 364.106L675.225 371.84" stroke="black" stroke-width="0.989017" stroke-linecap="round" stroke-linejoin="round"/>
<path d="M709.812 333.55L723.497 359.501C723.497 359.501 741.041 389.543 711.099 402.226C681.156 414.875 609.444 442.717 609.444 442.717C609.444 442.717 588.649 446.189 570.176 443.714C551.739 441.239 549.202 433.093 549.202 433.093C549.202 433.093 545.986 431.787 545.665 429.106C545.343 426.459 547.023 424.465 547.023 424.465C544.914 421.784 544.807 417.213 548.452 416.56C550.274 416.25 549.345 411.369 556.563 411.129C563.816 410.854 570.069 412.71 575.607 412.676C581.146 412.607 586.862 411.61 586.862 411.61L584.79 394.905C584.79 394.905 605.8 413.707 608.265 413.088C610.695 412.469 675.225 371.841 675.225 371.841L660.968 351.871" stroke="black" stroke-width="0.989017" stroke-linecap="round" stroke-linejoin="round"/>
<path d="M575.716 478.669L588.615 502.523C588.615 502.523 536.983 666.892 518.403 702.64C499.823 738.421 481.493 781.112 481.493 781.112" stroke="white" stroke-width="0.989017" stroke-linecap="round" stroke-linejoin="round"/>
<path d="M535.697 354.688L572.214 361.872C572.214 361.872 575.537 362.319 576.358 367.303C577.216 372.252 578.931 386.208 578.931 386.208L581.325 407.45" stroke="black" stroke-width="0.989017" stroke-linecap="round" stroke-linejoin="round"/>
<path d="M561.207 164.162C561.207 164.162 557.848 159.316 551.667 158.078C545.45 156.841 541.448 159.694 541.448 159.694" stroke="white" stroke-width="0.989017" stroke-linecap="round" stroke-linejoin="round"/>
<path d="M577.038 176.054C579.611 179.354 580.575 182.723 580.575 186.435" stroke="white" stroke-width="0.989017" stroke-linecap="round" stroke-linejoin="round"/>
<path d="M593.045 185.92C595.725 190.835 595.26 196.3 593.045 199.943" stroke="white" stroke-width="0.989017" stroke-linecap="round" stroke-linejoin="round"/>
<path d="M530.694 149.313C526.121 148.729 520.404 152.063 520.761 156.909" stroke="white" stroke-width="0.989017" stroke-linecap="round" stroke-linejoin="round"/>
<path d="M569.82 376.076C568.442 377.653 565.801 377.524 563.922 375.788C562.043 374.052 561.636 371.366 563.015 369.789C564.393 368.212 567.033 368.341 568.913 370.077C570.792 371.814 571.198 374.499 569.82 376.076Z" fill="black"/>
<path d="M678.654 469.664C678.654 469.664 675.188 473.513 670.9 476.504C666.648 479.494 664.219 481.213 664.219 481.213" stroke="white" stroke-width="0.989017" stroke-linecap="round" stroke-linejoin="round"/>
<path d="M674.511 486.609L666.222 490.837" stroke="white" stroke-width="0.989017" stroke-linecap="round" stroke-linejoin="round"/>
<path fill-rule="evenodd" clip-rule="evenodd" d="M561.063 94.2146C549.808 94.1802 524.546 92.4616 513.934 78.5752C500.142 60.4609 514.327 40.5936 543.626 39.8374C611.801 38.1188 612.122 88.44 574.569 93.6646L568.423 106.657L561.063 94.2146Z" fill="white" stroke="black" stroke-width="0.989017" stroke-linecap="round" stroke-linejoin="round"/>
<path fill-rule="evenodd" clip-rule="evenodd" d="M572.067 66.8197C570.102 66.8197 568.53 68.4008 568.53 70.3257C568.53 72.2505 570.102 73.7973 572.067 73.7973C574.032 73.7973 575.64 72.2505 575.64 70.3257C575.64 68.4008 574.032 66.8197 572.067 66.8197ZM534.407 61.4232C532.442 61.4232 530.87 63.0043 530.87 64.9292C530.87 66.8541 532.442 68.4352 534.407 68.4352C536.372 68.4352 537.98 66.8541 537.98 64.9292C537.98 63.0043 536.372 61.4232 534.407 61.4232ZM553.594 64.448C551.629 64.448 550.057 65.9947 550.057 67.954C550.057 69.8788 551.629 71.4256 553.594 71.4256C555.56 71.4256 557.167 69.8788 557.167 67.954C557.167 65.9947 555.56 64.448 553.594 64.448Z" fill="black"/>
</svg>
